# xmcd
#
# Track frame offsets:
# 150
# 32387
# 66690
# 95130
# 127680
# 162528
# 193572
# 223248
# 259836
# 290868
# 321012
#
# Disc length: 4789 seconds
#
# Revision: 0
# Processed by: cddbd v1.4PL0 Copyright (c) Steve Scherf et al.
# Submitted via: Audion 2.6.0 (http://www.panic.com/audion/)
#
DISCID=ae12b30b
DTITLE=Dante - Paradise [CD3]
DYEAR=1900
DGENRE=
TTITLE0=Canto XXIII
TTITLE1=Canto XXIV
TTITLE2=Canto XXV
TTITLE3=Canto XXVI
TTITLE4=Canto XXVII
TTITLE5=Canto XXVIII
TTITLE6=Canto IXXX
TTITLE7=Canto XXX
TTITLE8=Canto XXXI
TTITLE9=Canto XXXII
TTITLE10=Canto XXXIII
EXTD=
EXTT0=
EXTT1=
EXTT2=
EXTT3=
EXTT4=
EXTT5=
EXTT6=
EXTT7=
EXTT8=
EXTT9=
EXTT10=
PLAYORDER=
